<?xml version="1.0" encoding="utf-8"?>

<!DOCTYPE svg PUBLIC "-//W3C//DTD SVG 1.1//EN" "http://www.w3.org/Graphics/SVG/1.1/DTD/svg11.dtd">
<svg version="1.1" id="Layer_1" xmlns="http://www.w3.org/2000/svg" xmlns:xlink="http://www.w3.org/1999/xlink" x="0px" y="0px"
	 viewBox="0 0 1415.495 1671.58" enable-background="new 0 0 1415.495 1671.58" xml:space="preserve">
<g>
	<path d="M1027.943,426.528c7.633,0.188,96.039,2.534,103.6,3.211c44.773,4.012,8.495,65.206,13.228,204.492
		c2.159,63.538,20.236,113.333,34.005,135.238c9.591,15.258,17.746,16.375,30.968,4.37c5.395-4.899,9.795-10.487,12.962-17.144
		c32.308-67.909,38.291-123.294,35.563-198.699c-1.244-34.398,20.276-62.632,44.653-39.729c11.601,10.9,45.89,45.356,56.348,57.398
		c22.613,26.036,28.602,55.165,25.041,74.635c-18.821,102.91-57.423,199.565-165.802,302.208
		c-18.597,17.613-32.65,17.723-43.088,13.19c-36.619-15.899-87.427-102.812-105.546-138.534
		c-15.798-31.147-19.174-1.453-45.556,39.921c-19.206,30.12-45.813,58.631-71.11,83.424c-26.504,25.977-54.918,14.836-77.164-13.963
		C760.484,786.943,733.98,659.784,757.027,510.182c1.41-9.155,1.397-9.151,10.802-11.011c31.449-6.218,62.379-14.067,90.927-29.275
		c20.191-10.756,65.346-45.851,51.319,31.31C889.524,614.265,890.6,681.548,912.52,743.51c6.796,19.21,19.164,49.153,35.886,37.22
		c17.849-12.738,57.905-83.946,63.898-170.637C1022.674,460.083,984.72,425.466,1027.943,426.528z"/>
	<path d="M368.733,659.309c3.368-4.099,3.784-101.615-21.481-196.816c-4.009-15.105,8.162-18.567,30.526-19.768
		c103.022-5.536,90.936,5.255,94.916,75.728c3.289,58.253,23.585,439.9-34.402,452.073c-3.02,0.634-6.1,1.337-9.16,1.369
		c-68.529,0.72-83.416,5.216-89.624-17c-37.735-135.037-79.766-242.468-154.237-345.426c-1.428-1.974-2.527-5.44-5.404-4.736
		c-2.966,0.726-2.143,4.242-2.356,6.676c-25.577,291.606,73.185,346.574-4.148,356.136c-29.824,3.687-83.667-0.394-104.499-6.747
		c-21.283-6.49-32.198-19.648-34.065-41.913C18.229,721.213,47.703,567.733,218.576,456.382c7.076-4.611,7.528-4.573,13.922,1.272
		c67.831,62.013,111.074,160.717,134.522,200.694C367.237,658.718,367.871,658.843,368.733,659.309z"/>
	<path d="M942.871,998.799c2.578-11.953,12.18-20.269,24.331-21.354c17.639-1.575,92.736-5.01,105.718-1.089
		c52.149,15.749-27.005,117.843-16.944,232.312c0.896,10.19,2.895,18.163,11.007,14.393c3.064-1.424,5.817-3.42,7.995-6
		c212.553-251.697,43.699-238.091,229.861-242.434c18.238-0.425,31.983,4.482,33.341,22.602
		c2.495,33.31-24.176,86.544-42.415,114.528c-86.343,132.48-105.792,80.281-26.959,181.347c14.358,18.408,19.446,36.15,7.879,59.684
		c-12.784,26.011-31.25,47.094-55.933,62.697c-24.084,15.224-48.321-10.781-59.808-34.708
		c-20.492-42.684-11.324-54.372-34.438-55.842c-22.439-1.427-50.795,16.588-57.673,64.372
		c-15.144,105.207,42.364,135.801,12.076,170.905c-19.879,23.039-75.094,51.078-104.197,62.166
		c-18.346,6.99-25.345,3.826-32.929-14.33C906.636,1519.109,891.582,1236.56,942.871,998.799z"/>
	<path d="M695.548,1013.049c0.877-16.232,5.374-20.554,21.526-20.392c106.981,1.074,144.847-7.167,161.615,38.127
		c26.57,71.772,31.184,145.132-19.924,272.792c-2.613,6.527-6.029,12.586-10.151,18.182c-11.023,14.967,7.363,19.01,35.023,119.113
		c10.835,39.213,16.176,79.239,18.069,119.8c0.998,21.38-5,52.926-22.469,69.395c-7.54,7.109-27.262,8.482-40.623-0.45
		c-8.935-5.973-13.9-11.645-24.172-89.203c-16.577-125.164-10.362-138.676-26.773-140.77c-18.48-2.357-19.846,47.414-20.478,66.04
		c-3.206,94.546,16.33,110.918,1.931,137.883c-8.291,15.528-25.942,5.661-31.149,1.213c-9.512-8.126-17.931-1.374-25.046,1.442
		c-14.999,5.936-21.127-3.596-20.826-19.529C693.428,1516.72,676.354,1368.311,695.548,1013.049z M759.737,1272.953
		c2.113,9.263,10.879,8.393,15.289,3.591c2.079-2.263,25.096-39.282,36.795-73.783c17.845-52.621-1.815-102.12-25.754-90.099
		c-11.632,5.841-17.947,11.916-23.618,40.914C755.85,1187.323,757.25,1262.048,759.737,1272.953z"/>
	<path d="M639.008,1586.463c-8.086,31.095-64.761,63.596-136.984,40.786c-42.963-13.569-62.071-36.304-68.421-72.462
		c-37.089-211.172,16.513-446.5,52.839-524.845c20.233-43.638,47.264-59.959,86.315-36.405c4.541,2.739,6.995,7.522,9.728,11.867
		C656.056,1122.364,684.158,1412.838,639.008,1586.463z M537.185,1119.59c-26.831,24.088-50.441,228.642-31.795,352.127
		c3.829,25.362,19.619,36.056,44.554,30.216c22.664-5.309,28.027-23.99,30.927-47.378
		C594.538,1344.32,572.013,1088.321,537.185,1119.59z"/>
	<path d="M422.951,1162.668c-42.528,86.371-72.258,102.479-102.242,179.024c-31.087,79.359-20.234,73.185-17.233,130.07
		c1.797,34.068-6.91,57.125-12.253,64.422c-3.585,4.897-5.557,4.834-11.995-2.25c-31.599-34.769-57.921-73.069-78.101-115.593
		c-3.348-7.056-4.055-13.207-1.09-20.517c5.997-14.787,10.378-30.159,16.657-44.905c12.601-29.595-3.769-41.568-68.624-126.474
		c-14.809-19.387-59.407-38.136-82.529-132.491c-5.649-23.052-9.5-46.457-13.499-69.83c-2.378-13.899,8.376-13.703,25.384-17.683
		c51.172-11.976,89.044-14.927,143.196-3.381c15.601,3.327,5.127,1.924,6.295,65.605c1.261,68.74,38.053,175.021,62.621,150.963
		c13.325-13.048,36.071-76.059,41.346-95.226c34.475-125.267-52.072-133.216,82.271-130.256c8.609,0.19,15.867,4.107,22.734,8.792
		c6.434,4.389,8.758,17.23,8.799,25.556C445.063,1103.921,443.806,1120.313,422.951,1162.668z"/>
	<path d="M536.482,449.211c2.903-4.453,6.108-1.438,14.055,3.178c29.767,17.292,60.603,32.083,94.367,39.883
		c102.79,23.745,103.758-15.439,74.077,74.161c-4.898,14.785-15.044,15.918-22.551,10.53c-7.688-5.518-29.634-35.056-77.869-25.171
		c-43.338,8.881-48.37,99.153-16.366,82.646c11.389-5.874,37.89-25.683,78.902-22.112c18.03,1.57,25.285,7.653,24.799,25.654
		c-0.842,31.174-6.498,61.539-21.2,89.537c-27.293,51.976-90.045-67.291-101.192,69.069
		c-5.382,65.841,56.746,102.758,106.723,36.117c7.357-9.81,16.075-15.617,24.609-6.719c5.241,5.464,9.059,11.961,11.721,18.976
		c38.878,102.466,31.574,114.423,18.715,119.541c-26.246,10.445-182.073,8.299-215.045,4.572
		c-25.374-2.869-28.411-16.384-32.742-84.513C490.62,776.539,489.529,521.233,536.482,449.211z"/>
	<path d="M830.324,376.693c-3.508-17.608,0.511-30.637,18.038-30.852c43.139-0.531,170.942,2.935,180.839,0.022
		c97.463-28.688,180.638-77.613,230.102-173.692c44.289-86.027,38.155-39.803-117.423-8.936
		c-96.036,19.054-120.89-42.985-189.127-7.033c-24.5,12.908-50.534,32.638-74.583,59.49c-35.625,39.78-36.905,77.662-41.485,104.455
		c-6.221,36.393-41.757,27.728-42.12-1.111c-1.116-88.734,29.812-147.98,114.578-198.116c108.155-63.971,160.032,9.56,253.59-23.73
		c71.866-25.571,114.625-39.189,156.846-54.972c24.268-9.072,34.926-9.327,42.732,4.284c5.472,9.541,5.352,21.556,1.771,30.663
		c-55.63,141.466-90.895,203.889-182.166,262.684c-50.979,32.839-126.053,57.804-141.59,57.784
		C828.207,397.37,834.526,397.786,830.324,376.693z"/>
	<path d="M783.607,423.304c-0.657,12.488-4.066,23.812-16.417,25.468c-9.497,1.274-25.072-4.18-25.273-24.489
		c-0.497-50.01-5.398-99.717-19.439-147.48c-2.88-9.797-16.145-32.32-43.396-51.088c-15.505-10.678-23.961,8.69-14.702,18.069
		c35.066,35.522,59.854,68.126,60.528,122.515c0.256,20.626,1.408,41.243-1.041,61.813c-4.75,39.9-52.214,31.819-50.523-1.742
		c3.113-61.76-2.896-107.806-49.437-145.716c-18.025-14.682-24.132-13.681-24.811-21.795c-7.244-86.456,29.716-91.226,74.79-90.169
		c49.548,1.162,97.838,80.217,106.591,144.245C787.086,361.278,785.128,394.367,783.607,423.304z"/>
	<path d="M871.425,277.673c40.229-52.485,85.337-75.012,140.552-91.529c33.314-9.966,48.633,19.611,36.058,36.379
		c-6.266,8.354-13.96,7.163-61.269,32.358c-83.43,44.432-90.251,80.969-114.105,67.701
		C856.865,313.796,860.885,291.424,871.425,277.673z"/>
</g>
</svg>
